<?xml version="1.0" encoding="utf-8"?>
<!-- Generator: Adobe Illustrator 27.4.0, SVG Export Plug-In . SVG Version: 6.00 Build 0)  -->
<svg version="1.1" id="Layer_1" xmlns="http://www.w3.org/2000/svg" xmlns:xlink="http://www.w3.org/1999/xlink" x="0px" y="0px"
	 viewBox="0 0 400 400" style="enable-background:new 0 0 400 400;" xml:space="preserve">
<style type="text/css">
	.st0{fill:#5AACD6;}
</style>
<path class="st0" d="M199.49,344.8c2.76,0,5.42-0.81,7.59-2.19l100.6-79.72l1.03-0.82c2.2-1.92,3.79-4.52,4.45-7.48l0.23-1.36
	l20.23-119.86c0.06-0.51,0.09-1.03,0.09-1.55c0-5.09-2.73-9.53-6.8-11.96L205.98,55.62c-1.77-0.81-3.73-1.19-5.8-1.19h-1.3
	c-2.07,0-4.03,0.38-5.8,1.19L72.17,119.89c-4.07,2.43-6.8,6.86-6.8,11.94c0,0.53,0.03,1.03,0.09,1.54l20.23,119.86l0.23,1.36
	c0.65,2.96,2.24,5.56,4.45,7.48l1.03,0.82l100.6,79.71C194.16,343.99,196.73,344.8,199.49,344.8z"/>
</svg>
